<?xml version="1.0" encoding="utf-8" standalone="no"?>
<?xml-stylesheet href="../restaurantmenu.css" type="text/css"?>
<!-- Generator: Adobe Illustrator 16.0.0, SVG Export Plug-In . SVG Version: 6.00 Build 0)  -->
<!DOCTYPE svg PUBLIC "-//W3C//DTD SVG 1.1//EN" "http://www.w3.org/Graphics/SVG/1.1/DTD/svg11.dtd">
<svg class="skin-nymph-lateral" version="1.1" id="Layer_1" xmlns="http://www.w3.org/2000/svg" xmlns:xlink="http://www.w3.org/1999/xlink" x="0px" y="0px"
	 width="157px" height="68px" viewBox="0 0 157 68" enable-background="new 0 0 157 68" xml:space="preserve">
<path fill="rgba(91, 37, 33, 1)" d="M55.184,2.041c-3.311,0.147-6.651,1.026-10.02,2.637c-2.109,1.055-4.395,2.784-6.855,5.186l-1.582,2.109
	c-3.809-1.64-7.734-2.461-11.777-2.461h-1.318c-3.779,0-7.881,1.055-12.305,3.164c-5.742,3.399-8.613,8.145-8.613,14.238
	c0,3.135,1.025,6.475,3.076,10.02c5.098,8.145,14.326,12.217,27.686,12.217c3.926,0,8.027-0.41,12.305-1.23v-0.176
	c-2.227,0.293-4.366,0.439-6.416,0.439c-12.188,0-21.329-3.222-27.422-9.668C8.66,34.62,7.02,30.635,7.02,26.562v-0.088
	c0-5.537,2.314-9.814,6.943-12.832c3.867-1.992,7.148-2.988,9.844-2.988h1.494c3.604,0,7.354,0.703,11.25,2.109v0.088
	c-0.352,0.499-0.733,1.699-1.143,3.604l-0.088,1.67c0,4.278,1.904,7.618,5.713,10.02c1.113,0.352,1.875,0.527,2.285,0.527h0.439
	c2.109,0,3.808-1.201,5.098-3.604c0.234-1.025,0.352-1.787,0.352-2.285c0-2.138-1.465-4.482-4.395-7.031
	c-2.081-1.494-4.366-2.695-6.855-3.604l-0.176-0.176C42.468,6.758,48.357,4.15,55.447,4.15c4.716,0,10.048,1.67,15.996,5.01
	c3.135,2.081,6.035,4.307,8.701,6.68c4.189,3.75,9.463,9.053,15.82,15.908c7.295,7.646,11.514,11.749,12.656,12.305
	c7.09,6.211,13.33,9.316,18.721,9.316h0.352c3.837,0,7.207-0.937,10.107-2.812c3.75-2.812,5.625-6.386,5.625-10.723
	c0-3.926-1.523-7.236-4.57-9.932c-2.696-1.758-5.625-2.637-8.789-2.637h-1.143c-1.465,0-3.487,0.264-6.064,0.791v0.176l2.725-0.352
	c4.892,0,8.936,1.611,12.129,4.834c1.934,2.373,2.9,4.981,2.9,7.822c0,3.311-1.436,6.24-4.307,8.789
	c-3.223,2.168-6.182,3.252-8.877,3.252h-0.439c-4.043,0-8.115-1.641-12.217-4.922c-0.527-0.117-3.194-2.52-7.998-7.207
	c-4.542-4.804-8.995-9.873-13.359-15.205C87,18.037,81.843,12.911,77.947,9.863C71.355,4.649,63.767,2.041,55.184,2.041
	L55.184,2.041z M53.953,7.314l-4.395,0.439V7.93h0.088c5.596,0,11.953,2.197,19.072,6.592c3.252,2.051,6.826,4.951,10.723,8.701
	l20.215,20.391c5.83,5.479,10.224,9.17,13.184,11.074c2.812,1.934,5.332,3.37,7.559,4.307c2.783,0.997,4.687,1.494,5.713,1.494h2.9
	c3.398,0,7.471-1.025,12.217-3.076c2.109-1.113,4.482-2.929,7.119-5.449c3.457-4.365,5.186-8.642,5.186-12.832
	c0-6.592-2.109-11.894-6.328-15.908c-3.633-2.988-7.939-4.482-12.92-4.482h-0.703c-4.073,0-7.822,1.318-11.25,3.955h0.176
	c2.783-1.347,6.064-2.021,9.844-2.021h1.758c4.014,0.411,7.617,1.729,10.811,3.955c2.753,2.314,4.277,4.014,4.57,5.098
	c1.289,1.963,2.08,4.102,2.373,6.416l0.264,2.549c0,3.926-1.23,7.793-3.691,11.602c-1.934,2.373-3.252,3.75-3.955,4.131
	c-1.993,1.758-4.248,3.047-6.768,3.867c-2.402,0.703-4.19,1.055-5.361,1.055h-2.197c-4.805,0-9.551-1.787-14.238-5.361
	c-2.285-1.259-6.68-4.951-13.184-11.074C85.974,25.713,77.185,16.924,76.365,16.543C68.748,10.391,61.277,7.314,53.953,7.314
	L53.953,7.314z M48.328,22.783v0.088c0,2.842-1.465,4.512-4.395,5.01H43.23c-1.436,0-3.018-0.996-4.746-2.988
	c-1.523-2.109-2.285-4.423-2.285-6.943c0-2.08,0.41-3.779,1.23-5.098C44.695,15.664,48.328,18.975,48.328,22.783L48.328,22.783z
	 M52.195,13.555l-1.67,0.176v0.176c1.406,0.088,5.39,1.758,11.953,5.01c4.922,2.725,9.726,6.182,14.414,10.371
	c3.164,3.018,6.65,6.709,10.459,11.074c2.929,3.34,6.65,7.061,11.162,11.162c6.328,5.333,11.689,8.906,16.084,10.723
	c2.959,1.29,5.801,1.934,8.525,1.934l2.373-0.352v-0.176h-0.088c-5.948-0.791-13.271-4.599-21.973-11.426
	c-3.135-2.519-6.299-5.419-9.492-8.701c-2.959-2.871-6.446-6.621-10.459-11.25c-3.809-4.131-6.739-7.001-8.789-8.613
	c-5.449-4.423-10.665-7.412-15.645-8.965C56.267,13.936,53.982,13.555,52.195,13.555L52.195,13.555z"/>
</svg>
