<?xml version="1.0" encoding="utf-8"?>
<!-- Generator: Adobe Illustrator 16.0.0, SVG Export Plug-In . SVG Version: 6.00 Build 0)  -->
<!DOCTYPE svg PUBLIC "-//W3C//DTD SVG 1.1//EN" "http://www.w3.org/Graphics/SVG/1.1/DTD/svg11.dtd">
<svg version="1.1" xmlns="http://www.w3.org/2000/svg" xmlns:xlink="http://www.w3.org/1999/xlink" x="0px" y="0px" width="150px"
	 height="150px" viewBox="0 0 150 150" enable-background="new 0 0 150 150" xml:space="preserve">
<g id="Layer_1">
	<g id="Layer_1_1_">
		<g id="Layer_3">
			<path fill="#A8DEDD" d="M93.801,62.76c0,4.817-2.111,8.756-4.691,8.756H60.96c-2.579,0-4.691-3.939-4.691-8.756V14.59
				c0-4.818,2.112-8.756,4.691-8.756h28.149c2.58,0,4.691,3.939,4.691,8.756V62.76z"/>
			<path fill="#A8DEDD" d="M143.033,48.782c0,3.633-2.111,6.606-4.691,6.606h-28.148c-2.58,0-4.691-2.974-4.691-6.606V12.439
				c0-3.633,2.111-6.606,4.691-6.606h28.148c2.58,0,4.691,2.974,4.691,6.606V48.782z"/>
			<path fill="#A8DEDD" d="M44.533,48.782c0,3.632-2.112,6.606-4.691,6.606H11.693c-2.579,0-4.691-2.975-4.691-6.606V12.438
				c0-3.632,2.112-6.606,4.691-6.606h28.149c2.58,0,4.691,2.975,4.691,6.606V48.782z"/>
			<path fill="#A8DEDD" d="M93.783,134.168c0,4.396-2.112,7.999-4.691,7.999H60.943c-2.58,0-4.691-3.603-4.691-7.999V90.165
				c0-4.396,2.111-7.997,4.691-7.997h28.148c2.58,0,4.691,3.602,4.691,7.997V134.168z"/>
			<path fill="#A8DEDD" d="M44.533,131.778c0,5.711-2.112,10.389-4.691,10.389H11.693c-2.58,0-4.691-4.678-4.691-10.389V74.636
				c0-5.711,2.111-10.387,4.691-10.387h28.148c2.58,0,4.691,4.678,4.691,10.387V131.778z"/>
			<path fill="#A8DEDD" d="M143.033,94.774c0,2.582-2.111,4.695-4.691,4.695h-28.148c-2.58,0-4.691-2.113-4.691-4.695v-25.83
				c0-2.583,2.111-4.696,4.691-4.696h28.148c2.58,0,4.691,2.114,4.691,4.696V94.774z"/>
			<path fill="#A8DEDD" d="M143.033,137.472c0,2.581-2.111,4.695-4.691,4.695h-28.148c-2.58,0-4.691-2.114-4.691-4.695v-25.83
				c0-2.582,2.111-4.695,4.691-4.695h28.148c2.58,0,4.691,2.114,4.691,4.695V137.472z"/>
		</g>
	</g>
</g>
<g id="Layer_2">
</g>
<g id="Layer_3_1_">
</g>
</svg>
