<?xml version="1.0" encoding="utf-8"?>
<!-- Generator: Adobe Illustrator 16.0.0, SVG Export Plug-In . SVG Version: 6.00 Build 0)  -->
<!DOCTYPE svg PUBLIC "-//W3C//DTD SVG 1.1//EN" "http://www.w3.org/Graphics/SVG/1.1/DTD/svg11.dtd">
<svg version="1.1" id="Layer_1" xmlns="http://www.w3.org/2000/svg" xmlns:xlink="http://www.w3.org/1999/xlink" x="0px" y="0px"
	 width="150px" height="150px" viewBox="0 0 150 150" enable-background="new 0 0 150 150" xml:space="preserve">
<g id="Layer_1_2_">
	<g id="Layer_1_1_">
		<g id="Layer_3">
			<path fill="#A8DEDD" d="M100.603,47.346c0,3.243-2.77,5.9-6.149,5.9H57.547c-3.381,0-6.15-2.657-6.15-5.9V14.887
				c0-3.244,2.769-5.9,6.15-5.9h36.904c3.382,0,6.15,2.657,6.15,5.9L100.603,47.346L100.603,47.346z"/>
			<rect x="51.397" y="61.175" fill="#A8DEDD" width="49.206" height="5.09"/>
			<g id="Layer_3_2_">
				<path fill="#A8DEDD" d="M100.603,120.096c0,3.242-2.77,5.9-6.149,5.9H57.547c-3.381,0-6.15-2.657-6.15-5.9V87.637
					c0-3.244,2.769-5.9,6.15-5.9h36.904c3.382,0,6.15,2.656,6.15,5.9L100.603,120.096L100.603,120.096z"/>
				<rect x="51.397" y="133.925" fill="#A8DEDD" width="49.206" height="5.09"/>
			</g>
		</g>
	</g>
</g>
<g id="Layer_2">
</g>
<g id="Layer_3_1_">
</g>
</svg>
