<?xml version="1.0" encoding="utf-8"?>
<!-- Generator: Adobe Illustrator 16.0.0, SVG Export Plug-In . SVG Version: 6.00 Build 0)  -->
<!DOCTYPE svg PUBLIC "-//W3C//DTD SVG 1.1//EN" "http://www.w3.org/Graphics/SVG/1.1/DTD/svg11.dtd">
<svg version="1.1" id="Layer_1" xmlns="http://www.w3.org/2000/svg" xmlns:xlink="http://www.w3.org/1999/xlink" x="0px" y="0px"
	 width="150px" height="150px" viewBox="0 0 150 150" enable-background="new 0 0 150 150" xml:space="preserve">
<g id="Layer_1_1_">
	<g id="Layer_3">
		<path fill="#A8DEDD" d="M59.095,36.315c0,2.581-2.112,4.691-4.691,4.691H26.255c-2.579,0-4.691-2.111-4.691-4.691V10.512
			c0-2.581,2.112-4.691,4.691-4.691h28.149c2.58,0,4.691,2.111,4.691,4.691V36.315z"/>
		<rect x="63.787" y="5.82" fill="#A8DEDD" width="68.025" height="7.037"/>
		<rect x="63.787" y="19.895" fill="#A8DEDD" width="44.568" height="7.038"/>
		<rect x="63.787" y="33.969" fill="#A8DEDD" width="68.025" height="7.037"/>
		<path fill="#A8DEDD" d="M59.095,85.973c0,2.578-2.112,4.69-4.691,4.69H26.255c-2.579,0-4.691-2.112-4.691-4.69V60.169
			c0-2.58,2.112-4.691,4.691-4.691h28.149c2.58,0,4.691,2.112,4.691,4.691V85.973z"/>
		<rect x="63.787" y="55.478" fill="#A8DEDD" width="68.025" height="7.037"/>
		<rect x="63.787" y="69.551" fill="#A8DEDD" width="44.568" height="7.037"/>
		<rect x="63.787" y="83.627" fill="#A8DEDD" width="30.495" height="7.036"/>
		<path fill="#A8DEDD" d="M59.095,136.385c0,2.578-2.112,4.69-4.691,4.69H26.255c-2.579,0-4.691-2.112-4.691-4.69v-25.804
			c0-2.579,2.112-4.69,4.691-4.69h28.149c2.58,0,4.691,2.111,4.691,4.69V136.385z"/>
		<rect x="63.787" y="105.889" fill="#A8DEDD" width="68.025" height="7.037"/>
		<rect x="63.787" y="119.965" fill="#A8DEDD" width="44.568" height="7.037"/>
		<rect x="63.787" y="134.039" fill="#A8DEDD" width="30.494" height="7.037"/>
	</g>
</g>
</svg>
