<?xml version="1.0" encoding="utf-8"?>
<!-- Generator: Adobe Illustrator 16.0.0, SVG Export Plug-In . SVG Version: 6.00 Build 0)  -->
<!DOCTYPE svg PUBLIC "-//W3C//DTD SVG 1.1//EN" "http://www.w3.org/Graphics/SVG/1.1/DTD/svg11.dtd">
<svg version="1.1" id="Layer_1" xmlns="http://www.w3.org/2000/svg" xmlns:xlink="http://www.w3.org/1999/xlink" x="0px" y="0px"
	 width="150px" height="150px" viewBox="0 0 150 150" enable-background="new 0 0 150 150" xml:space="preserve">
<g id="Layer_2">
	<path fill="#8D8583" d="M10.156,48.083c0-4.725,3.867-8.592,8.596-8.592h51.583c4.726,0,8.596,3.867,8.596,8.592v47.284
		c0,4.729-3.871,8.593-8.596,8.593H18.752c-4.729,0-8.596-3.867-8.596-8.593V48.083z"/>
	<g>
		<path fill="#FFFFFF" d="M39.5,64.783v11.1c0,2.99-2.194,4.354-4.876,3.032l-11.887-5.863"/>
	</g>
	<g>
		<path fill="#FFFFFF" d="M49.237,79.994v-11.1c0-2.99,2.194-4.355,4.876-3.032L66,71.725"/>
	</g>
</g>
<rect x="85.55" y="67.884" fill="#A8DEDD" width="49.95" height="5.167"/>
<rect x="85.55" y="78.219" fill="#A8DEDD" width="32.726" height="5.167"/>
<rect x="85.55" y="88.553" fill="#A8DEDD" width="49.95" height="5.167"/>
<rect x="85.55" y="48.549" fill="#A8DEDD" width="49.95" height="9.701"/>
</svg>
