<?xml version="1.0" encoding="utf-8"?>
<!-- Generator: Adobe Illustrator 16.0.0, SVG Export Plug-In . SVG Version: 6.00 Build 0)  -->
<!DOCTYPE svg PUBLIC "-//W3C//DTD SVG 1.1//EN" "http://www.w3.org/Graphics/SVG/1.1/DTD/svg11.dtd">
<svg version="1.1" id="Layer_1" xmlns="http://www.w3.org/2000/svg" xmlns:xlink="http://www.w3.org/1999/xlink" x="0px" y="0px"
	 width="150px" height="150px" viewBox="0 0 150 150" enable-background="new 0 0 150 150" xml:space="preserve">
<g id="Layer_1_2_">
	<g id="Layer_1_1_">
		<g id="Layer_3">
			<path fill="#A8DEDD" d="M93.783,85.902c0,2.58-2.111,4.689-4.691,4.689H60.943c-2.579,0-4.691-2.109-4.691-4.689V60.099
				c0-2.581,2.112-4.69,4.691-4.69h28.148c2.58,0,4.691,2.11,4.691,4.69L93.783,85.902L93.783,85.902z"/>
			<path fill="#A8DEDD" d="M143.016,85.9c0,2.58-2.111,4.69-4.69,4.69h-28.148c-2.579,0-4.69-2.11-4.69-4.69V60.099
				c0-2.58,2.111-4.69,4.69-4.69h28.148c2.579,0,4.69,2.111,4.69,4.69V85.9z"/>
			<path fill="#A8DEDD" d="M44.516,85.9c0,2.578-2.112,4.69-4.691,4.69H11.676c-2.579,0-4.691-2.112-4.691-4.69V60.098
				c0-2.579,2.112-4.69,4.691-4.69h28.149c2.58,0,4.691,2.112,4.691,4.69V85.9z"/>
		</g>
	</g>
</g>
<g id="Layer_2">
	<path fill="#8D8583" d="M143.016,43.745c0,1.29-1.056,2.346-2.347,2.346h-14.082c-1.29,0-2.347-1.056-2.347-2.346V30.837
		c0-1.291,1.057-2.346,2.347-2.346h14.082c1.291,0,2.347,1.056,2.347,2.346V43.745z"/>
	<path fill="#8D8583" d="M102.406,30.837c0-1.29,1.056-2.346,2.347-2.346h14.082c1.29,0,2.347,1.056,2.347,2.346v12.908
		c0,1.291-1.057,2.346-2.347,2.346h-14.082c-1.291,0-2.347-1.056-2.347-2.346V30.837z"/>
	<g>
		<path fill="#FFFFFF" d="M114.723,33.785v4.707c0,1.268-0.931,1.846-2.067,1.286l-5.04-2.486"/>
	</g>
</g>
<g>
	<path fill="#FFFFFF" d="M130.615,40.797V36.09c0-1.268,0.931-1.846,2.067-1.286l5.04,2.486"/>
</g>
</svg>
